<svg xmlns="http://www.w3.org/2000/svg" viewBox="0 0 559 338"><defs><style>.cls-1{fill:#fff;}.cls-2,.cls-7{fill:#008755;}.cls-2,.cls-4{stroke:#314d64;stroke-linecap:round;stroke-linejoin:round;}.cls-3{fill:#bc204b;}.cls-10,.cls-4,.cls-5,.cls-6,.cls-8,.cls-9{fill:none;}.cls-5,.cls-6,.cls-8{stroke:#008755;}.cls-10,.cls-5,.cls-6,.cls-8,.cls-9{stroke-miterlimit:10;}.cls-6{stroke-dasharray:8.98 3.99;}.cls-8{stroke-dasharray:10.89 4.84;}.cls-9{stroke:#bc204b;}.cls-10{stroke:#000;}.cls-11{font-size:18px;font-family:Helvetica-Bold, Helvetica;font-weight:700;}.cls-11,.cls-12,.cls-14,.cls-15{fill:#314d64;}.cls-12{font-size:10px;}.cls-12,.cls-14,.cls-15{font-family:Helvetica;}.cls-13{letter-spacing:-0.07em;}.cls-14,.cls-15{font-size:14px;}.cls-15{letter-spacing:-0.01em;}</style></defs><g id="white_bkg" data-name="white bkg"><rect class="cls-1" width="559" height="338"/></g><g id="grafx"><circle cx="67.44" cy="276.36" r="2.96"/><circle cx="67.49" cy="276.32" r="2.96"/><circle cx="67.66" cy="276.18" r="2.96"/><circle cx="67.94" cy="275.95" r="2.96"/><circle cx="68.32" cy="275.65" r="2.96"/><circle cx="68.81" cy="275.26" r="2.96"/><circle cx="69.4" cy="274.8" r="2.96"/><circle cx="70.09" cy="274.26" r="2.96"/><circle cx="70.88" cy="273.65" r="2.96"/><circle cx="71.76" cy="272.98" r="2.96"/><circle cx="72.74" cy="272.24" r="2.96"/><circle cx="73.81" cy="271.44" r="2.96"/><circle cx="74.96" cy="270.59" r="2.96"/><circle cx="76.2" cy="269.69" r="2.96"/><circle cx="77.53" cy="268.73" r="2.96"/><circle cx="78.94" cy="267.73" r="2.96"/><circle cx="80.42" cy="266.68" r="2.96"/><circle cx="81.99" cy="265.6" r="2.96"/><circle cx="83.62" cy="264.48" r="2.96"/><circle cx="85.33" cy="263.33" r="2.96"/><circle cx="87.11" cy="262.15" r="2.96"/><circle cx="88.96" cy="260.94" r="2.96"/><circle cx="90.87" cy="259.71" r="2.96"/><circle cx="92.85" cy="258.46" r="2.96"/><circle cx="94.88" cy="257.19" r="2.96"/><circle cx="96.98" cy="255.92" r="2.96"/><circle cx="99.13" cy="254.63" r="2.96"/><circle cx="101.33" cy="253.34" r="2.96"/><circle cx="103.59" cy="252.05" r="2.96"/><circle cx="105.9" cy="250.76" r="2.96"/><circle cx="108.25" cy="249.47" r="2.96"/><circle cx="110.64" cy="248.19" r="2.96"/><circle cx="113.08" cy="246.92" r="2.96"/><circle cx="115.56" cy="245.67" r="2.96"/><circle cx="118.08" cy="244.44" r="2.96"/><circle cx="120.63" cy="243.22" r="2.96"/><circle cx="123.21" cy="242.04" r="2.96"/><circle cx="125.83" cy="240.88" r="2.96"/><circle cx="128.47" cy="239.75" r="2.96"/><circle cx="131.14" cy="238.66" r="2.96"/><circle cx="133.83" cy="237.6" r="2.96"/><circle cx="136.55" cy="236.59" r="2.96"/><circle cx="139.28" cy="235.63" r="2.96"/><circle cx="142.03" cy="234.71" r="2.96"/><circle cx="144.8" cy="233.85" r="2.96"/><circle cx="147.58" cy="233.04" r="2.96"/><circle cx="150.36" cy="232.29" r="2.96"/><circle cx="153.16" cy="231.6" r="2.96"/><circle cx="155.96" cy="230.98" r="2.96"/><circle cx="158.76" cy="230.43" r="2.96"/><circle cx="161.57" cy="229.95" r="2.96"/><circle cx="164.37" cy="229.55" r="2.96"/><circle cx="167.17" cy="229.22" r="2.96"/><circle cx="169.96" cy="228.98" r="2.96"/><circle cx="172.74" cy="228.83" r="2.96"/><circle cx="175.51" cy="228.76" r="2.96"/><circle cx="178" cy="228.78" r="2.96"/><circle cx="180.45" cy="228.85" r="2.96"/><circle cx="182.94" cy="228.97" r="2.96"/><circle cx="185.47" cy="229.15" r="2.96"/><circle cx="188.03" cy="229.38" r="2.96"/><circle cx="190.63" cy="229.65" r="2.96"/><circle cx="193.26" cy="229.97" r="2.96"/><circle cx="195.92" cy="230.34" r="2.96"/><circle cx="198.6" cy="230.75" r="2.96"/><circle cx="201.31" cy="231.2" r="2.96"/><circle cx="204.04" cy="231.69" r="2.96"/><circle cx="206.78" cy="232.21" r="2.96"/><circle cx="209.55" cy="232.78" r="2.96"/><circle cx="212.32" cy="233.37" r="2.96"/><circle cx="215.1" cy="234" r="2.96"/><circle cx="217.89" cy="234.66" r="2.96"/><circle cx="220.69" cy="235.35" r="2.96"/><circle cx="223.49" cy="236.06" r="2.96"/><circle cx="226.29" cy="236.8" r="2.96"/><circle cx="229.08" cy="237.56" r="2.96"/><circle cx="231.87" cy="238.35" r="2.96"/><circle cx="234.65" cy="239.15" r="2.96"/><circle cx="237.42" cy="239.97" r="2.96"/><circle cx="240.17" cy="240.81" r="2.96"/><circle cx="242.91" cy="241.66" r="2.96"/><circle cx="245.64" cy="242.53" r="2.96"/><circle cx="248.33" cy="243.4" r="2.96"/><circle cx="251.01" cy="244.29" r="2.96"/><circle cx="253.66" cy="245.18" r="2.96"/><circle cx="256.28" cy="246.08" r="2.96"/><circle cx="258.86" cy="246.98" r="2.96"/><circle cx="261.42" cy="247.88" r="2.96"/><circle cx="263.93" cy="248.79" r="2.96"/><circle cx="266.41" cy="249.69" r="2.96"/><circle cx="268.84" cy="250.59" r="2.96"/><circle cx="271.23" cy="251.48" r="2.96"/><circle cx="273.57" cy="252.37" r="2.96"/><circle cx="275.86" cy="253.24" r="2.96"/><circle cx="278.1" cy="254.11" r="2.96"/><circle cx="280.28" cy="254.97" r="2.96"/><circle cx="282.4" cy="255.81" r="2.96"/><circle cx="284.46" cy="256.63" r="2.96"/><circle cx="286.46" cy="257.44" r="2.96"/><circle cx="288.4" cy="258.23" r="2.96"/><circle cx="290.26" cy="259" r="2.96"/><circle cx="292.05" cy="259.74" r="2.96"/><circle cx="293.77" cy="260.46" r="2.96"/><circle cx="295.41" cy="261.15" r="2.96"/><circle cx="296.98" cy="261.82" r="2.96"/><circle cx="298.46" cy="262.45" r="2.96"/><circle cx="299.86" cy="263.06" r="2.96"/><circle cx="301.17" cy="263.63" r="2.96"/><circle cx="302.39" cy="264.16" r="2.96"/><circle cx="303.51" cy="264.66" r="2.96"/><circle cx="304.55" cy="265.12" r="2.96"/><circle cx="305.48" cy="265.53" r="2.96"/><circle cx="306.32" cy="265.91" r="2.96"/><circle cx="307.05" cy="266.24" r="2.96"/><circle cx="307.68" cy="266.52" r="2.96"/><circle cx="308.19" cy="266.76" r="2.96"/><circle cx="308.6" cy="266.95" r="2.96"/><circle cx="308.9" cy="267.08" r="2.96"/><circle cx="309.08" cy="267.17" r="2.96"/><circle cx="309.14" cy="267.2" r="2.96"/><circle cx="309.25" cy="267.24" r="2.96"/><circle cx="309.57" cy="267.38" r="2.96"/><circle cx="310.09" cy="267.6" r="2.96"/><circle cx="310.83" cy="267.89" r="2.96"/><circle cx="311.75" cy="268.25" r="2.96"/><circle cx="312.88" cy="268.66" r="2.96"/><circle cx="314.19" cy="269.13" r="2.96"/><circle cx="315.68" cy="269.63" r="2.96"/><circle cx="317.36" cy="270.17" r="2.96"/><circle cx="319.21" cy="270.73" r="2.96"/><circle cx="321.22" cy="271.3" r="2.96"/><circle cx="323.4" cy="271.89" r="2.96"/><circle cx="325.74" cy="272.47" r="2.96"/><circle cx="328.24" cy="273.04" r="2.96"/><circle cx="330.88" cy="273.6" r="2.96"/><circle cx="333.67" cy="274.13" r="2.96"/><circle cx="336.59" cy="274.63" r="2.96"/><circle cx="339.65" cy="275.09" r="2.96"/><circle cx="342.85" cy="275.5" r="2.96"/><circle cx="346.16" cy="275.85" r="2.96"/><circle cx="349.6" cy="276.13" r="2.96"/><circle cx="353.15" cy="276.34" r="2.96"/><circle cx="356.81" cy="276.47" r="2.96"/><circle cx="360.38" cy="276.51" r="2.96"/><circle cx="362.54" cy="276.51" r="2.96"/><circle cx="364.84" cy="276.51" r="2.96"/><circle cx="367.25" cy="276.51" r="2.96"/><circle cx="369.77" cy="276.52" r="2.96"/><circle cx="372.38" cy="276.52" r="2.96"/><circle cx="375.07" cy="276.52" r="2.96"/><circle cx="377.83" cy="276.53" r="2.96"/><circle cx="380.64" cy="276.53" r="2.96"/><circle cx="383.5" cy="276.54" r="2.96"/><circle cx="386.39" cy="276.54" r="2.96"/><circle cx="389.3" cy="276.55" r="2.96"/><circle cx="392.21" cy="276.55" r="2.96"/><circle cx="395.12" cy="276.56" r="2.96"/><circle cx="398" cy="276.57" r="2.96"/><circle cx="400.86" cy="276.57" r="2.96"/><circle cx="403.67" cy="276.58" r="2.96"/><circle cx="406.42" cy="276.59" r="2.96"/><circle cx="409.1" cy="276.59" r="2.96"/><circle cx="411.71" cy="276.6" r="2.96"/><circle cx="414.21" cy="276.61" r="2.96"/><circle cx="416.61" cy="276.61" r="2.96"/><circle cx="418.89" cy="276.62" r="2.96"/><circle cx="421.04" cy="276.62" r="2.96"/><circle cx="423.04" cy="276.63" r="2.96"/><circle cx="424.88" cy="276.64" r="2.96"/><circle cx="426.56" cy="276.64" r="2.96"/><circle cx="428.05" cy="276.64" r="2.96"/><circle cx="429.34" cy="276.65" r="2.96"/><circle cx="430.43" cy="276.65" r="2.96"/><circle cx="431.3" cy="276.65" r="2.96"/><circle cx="431.94" cy="276.66" r="2.96"/><circle cx="432.33" cy="276.66" r="2.96"/><circle cx="432.46" cy="276.66" r="2.96"/><line class="cls-2" x1="43.92" y1="21.79" x2="38.8" y2="21.79"/><line class="cls-2" x1="43.92" y1="64.21" x2="38.8" y2="64.21"/><line class="cls-2" x1="43.92" y1="106.64" x2="38.8" y2="106.64"/><line class="cls-2" x1="43.92" y1="149.06" x2="38.8" y2="149.06"/><line class="cls-2" x1="43.92" y1="191.49" x2="38.8" y2="191.49"/><text/><line class="cls-2" x1="43.92" y1="276.34" x2="38.8" y2="276.34"/><line class="cls-2" x1="65.49" y1="290.85" x2="65.49" y2="295.97"/><line class="cls-2" x1="156.99" y1="290.85" x2="156.99" y2="295.97"/><line class="cls-2" x1="248.49" y1="290.85" x2="248.49" y2="295.97"/><line class="cls-2" x1="431.48" y1="290.85" x2="431.48" y2="295.97"/><line class="cls-2" x1="339.98" y1="291.44" x2="339.98" y2="296.57"/><rect class="cls-3" x="62.41" y="273.24" width="131.54" height="6.19"/><rect class="cls-3" x="299.04" y="233.99" width="4.98" height="4.98"/><rect class="cls-3" x="193.96" y="272.01" width="11.69" height="4.98"/><rect class="cls-3" x="205" y="271.03" width="9.15" height="4.98"/><rect class="cls-3" x="214.03" y="269.98" width="6.92" height="4.98"/><rect class="cls-3" x="226.05" y="267.91" width="6.92" height="4.98"/><rect class="cls-3" x="230.08" y="267.03" width="6.92" height="4.98"/><rect class="cls-3" x="234.11" y="265.99" width="6.92" height="4.98"/><rect class="cls-3" x="236.99" y="265.03" width="6.92" height="4.98"/><rect class="cls-3" x="241.13" y="263.99" width="6.92" height="4.98"/><rect class="cls-3" x="245.12" y="263.03" width="6.92" height="4.98"/><rect class="cls-3" x="250.07" y="260.96" width="6.92" height="4.98"/><rect class="cls-3" x="257.02" y="258.01" width="6.92" height="4.98"/><rect class="cls-3" x="248.04" y="262" width="4.95" height="4.98"/><rect class="cls-3" x="254.03" y="260.04" width="4.95" height="4.98"/><rect class="cls-3" x="260.98" y="256.97" width="4.95" height="4.98"/><rect class="cls-3" x="262.97" y="256.05" width="4.95" height="4.98"/><rect class="cls-3" x="265.08" y="255.01" width="4.95" height="4.98"/><rect class="cls-3" x="267.08" y="254.09" width="4.95" height="4.98"/><rect class="cls-3" x="268.04" y="253.02" width="4.95" height="4.98"/><rect class="cls-3" x="270.07" y="252.09" width="4.95" height="4.98"/><rect class="cls-3" x="271.99" y="250.95" width="4.95" height="4.98"/><rect class="cls-3" x="274.06" y="249.99" width="4.95" height="4.98"/><rect class="cls-3" x="276.02" y="248.95" width="4.95" height="4.98"/><rect class="cls-3" x="277.98" y="247.99" width="4.95" height="4.98"/><rect class="cls-3" x="279.01" y="247.1" width="4.95" height="4.98"/><rect class="cls-3" x="281.05" y="246" width="4.95" height="4.98"/><rect class="cls-3" x="283" y="244.96" width="4.95" height="4.98"/><rect class="cls-3" x="285" y="243.96" width="4.95" height="4.98"/><rect class="cls-3" x="287.07" y="241.97" width="4.95" height="4.98"/><rect class="cls-3" x="287.99" y="241.04" width="4.95" height="4.98"/><rect class="cls-3" x="290.03" y="239.97" width="4.95" height="4.98"/><rect class="cls-3" x="292.06" y="238.97" width="4.95" height="4.98"/><rect class="cls-3" x="294.06" y="236.98" width="4.95" height="4.98"/><rect class="cls-3" x="296.05" y="236.05" width="4.95" height="4.98"/><rect class="cls-3" x="298.01" y="234.98" width="4.95" height="4.98"/><rect class="cls-3" x="300.93" y="232.06" width="4.95" height="4.98"/><rect class="cls-3" x="303.04" y="230.95" width="4.95" height="4.98"/><rect class="cls-3" x="304.92" y="230.07" width="4.95" height="4.98"/><rect class="cls-3" x="307.06" y="228.03" width="4.95" height="4.98"/><rect class="cls-3" x="308.99" y="227.04" width="4.95" height="4.98"/><rect class="cls-3" x="310.06" y="226.08" width="4.95" height="4.98"/><rect class="cls-3" x="312.05" y="225" width="4.95" height="4.98"/><rect class="cls-3" x="313.94" y="223.04" width="4.95" height="4.98"/><rect class="cls-3" x="316.01" y="222.01" width="4.95" height="4.98"/><rect class="cls-3" x="318.04" y="221.05" width="4.95" height="4.98"/><rect class="cls-3" x="320.04" y="218.98" width="4.95" height="4.98"/><rect class="cls-3" x="321.04" y="218.06" width="4.95" height="4.98"/><rect class="cls-3" x="323.07" y="216.98" width="4.95" height="4.98"/><rect class="cls-3" x="325.1" y="216.02" width="4.95" height="4.98"/><rect class="cls-3" x="327.02" y="214.99" width="4.95" height="4.98"/><rect class="cls-3" x="328.98" y="214.03" width="4.95" height="4.98"/><rect class="cls-3" x="329.94" y="213.07" width="4.95" height="4.98"/><rect class="cls-3" x="331.97" y="212.03" width="4.95" height="4.98"/><rect class="cls-3" x="333.97" y="211" width="4.95" height="4.98"/><rect class="cls-3" x="335.97" y="210" width="4.95" height="4.98"/><rect class="cls-3" x="337.96" y="209" width="4.95" height="4.98"/><rect class="cls-3" x="340.03" y="208.04" width="5.94" height="4.98"/><rect class="cls-3" x="342.99" y="207.04" width="4.95" height="4.98"/><rect class="cls-3" x="369.04" y="208.04" width="4.95" height="4.98"/><rect class="cls-3" x="370.97" y="209.04" width="4.95" height="4.98"/><rect class="cls-3" x="372" y="210.11" width="4.95" height="4.98"/><rect class="cls-3" x="373.96" y="211.11" width="4.95" height="4.98"/><rect class="cls-3" x="376.03" y="213.07" width="4.95" height="4.98"/><rect class="cls-3" x="377.95" y="213.99" width="4.95" height="4.98"/><rect class="cls-3" x="380.13" y="215.8" width="4.95" height="4.98"/><rect class="cls-3" x="385.05" y="220.97" width="4.95" height="4.98"/><rect class="cls-3" x="387.04" y="222.97" width="4.95" height="4.98"/><rect class="cls-3" x="389" y="225.04" width="4.95" height="4.98"/><rect class="cls-3" x="390.96" y="228" width="4.95" height="4.98"/><rect class="cls-3" x="392.92" y="230.07" width="4.95" height="4.98"/><rect class="cls-3" x="393.99" y="232.06" width="4.95" height="4.98"/><rect class="cls-3" x="395.95" y="235.02" width="4.95" height="4.98"/><rect class="cls-3" x="398.06" y="238.05" width="4.95" height="4.98"/><rect class="cls-3" x="400.05" y="240.01" width="4.95" height="4.98"/><rect class="cls-3" x="402.01" y="243.04" width="4.95" height="4.98"/><rect class="cls-3" x="404.08" y="245.96" width="4.95" height="4.98"/><rect class="cls-3" x="405.04" y="248.99" width="4.95" height="4.98"/><rect class="cls-3" x="407.04" y="252.06" width="4.95" height="4.98"/><rect class="cls-3" x="408.89" y="254.02" width="4.95" height="4.98"/><rect class="cls-3" x="411.07" y="256.97" width="4.95" height="4.98"/><rect class="cls-3" x="412.91" y="260.08" width="4.95" height="4.98"/><rect class="cls-3" x="414.06" y="262" width="4.95" height="4.98"/><rect class="cls-3" x="416.02" y="264.07" width="4.95" height="4.98"/><rect class="cls-3" x="418.05" y="266.99" width="4.95" height="4.98"/><rect class="cls-3" x="420.05" y="269.02" width="4.95" height="4.98"/><rect class="cls-3" x="421.97" y="270.09" width="4.95" height="4.98"/><rect class="cls-3" x="424" y="272.09" width="4.95" height="4.98"/><rect class="cls-3" x="425.04" y="273.12" width="4.95" height="4.98"/><rect class="cls-3" x="426.91" y="274.01" width="7.06" height="4.98"/><rect class="cls-3" x="383.01" y="218.28" width="4.95" height="4.98"/><rect class="cls-3" x="381.31" y="217.17" width="4.95" height="4.98"/><rect class="cls-3" x="345.02" y="206.04" width="6.89" height="4.98"/><rect class="cls-3" x="361.99" y="206.04" width="5.95" height="4.98"/><rect class="cls-3" x="364.98" y="207.04" width="6.91" height="4.98"/><rect class="cls-3" x="349.05" y="205.01" width="15.85" height="4.98"/><rect class="cls-3" x="255.88" y="259.08" width="4.95" height="4.98"/><rect class="cls-3" x="220.93" y="269" width="9.21" height="4.98"/><rect class="cls-4" x="44.51" y="7.3" width="408.62" height="283.25"/><line class="cls-5" x1="64.48" y1="276.31" x2="68.98" y2="276.31"/><path class="cls-6" d="M73,276.31h161.6s40,0,57.45-1,54-6.57,73.89-29.76c18-21,26-41.06,35-70.63C409.56,146.36,426,72.83,430.12,28"/><path class="cls-5" d="M430.3,26c.13-1.53.24-3,.34-4.48"/><rect class="cls-7" x="63.14" y="273.51" width="4.97" height="4.97" transform="translate(-175.94 127.24) rotate(-45)"/><rect class="cls-7" x="67.19" y="273.51" width="4.97" height="4.97" transform="translate(-174.75 130.1) rotate(-45)"/><rect class="cls-7" x="71.23" y="273.51" width="4.97" height="4.97" transform="translate(-173.57 132.96) rotate(-45)"/><rect class="cls-7" x="75.28" y="273.51" width="4.97" height="4.97" transform="translate(-172.38 135.82) rotate(-45)"/><rect class="cls-7" x="79.32" y="273.51" width="4.97" height="4.97" transform="translate(-171.2 138.68) rotate(-45)"/><rect class="cls-7" x="83.37" y="273.51" width="4.97" height="4.97" transform="translate(-170.01 141.54) rotate(-45)"/><rect class="cls-7" x="87.41" y="273.51" width="4.97" height="4.97" transform="translate(-168.83 144.4) rotate(-45)"/><rect class="cls-7" x="91.46" y="273.51" width="4.97" height="4.97" transform="translate(-167.64 147.26) rotate(-45)"/><rect class="cls-7" x="95.5" y="273.51" width="4.97" height="4.97" transform="translate(-166.46 150.12) rotate(-45)"/><rect class="cls-7" x="99.54" y="273.51" width="4.97" height="4.97" transform="translate(-165.27 152.98) rotate(-45)"/><rect class="cls-7" x="103.59" y="273.51" width="4.97" height="4.97" transform="translate(-164.09 155.84) rotate(-45)"/><rect class="cls-7" x="107.63" y="273.51" width="4.97" height="4.97" transform="translate(-162.9 158.7) rotate(-45)"/><rect class="cls-7" x="111.68" y="273.51" width="4.97" height="4.97" transform="translate(-161.72 161.56) rotate(-45)"/><rect class="cls-7" x="115.72" y="273.51" width="4.97" height="4.97" transform="translate(-160.53 164.42) rotate(-45)"/><rect class="cls-7" x="119.77" y="273.51" width="4.97" height="4.97" transform="translate(-159.35 167.28) rotate(-45)"/><rect class="cls-7" x="123.81" y="273.51" width="4.97" height="4.97" transform="translate(-158.16 170.14) rotate(-45)"/><rect class="cls-7" x="127.86" y="273.51" width="4.97" height="4.97" transform="translate(-156.98 173) rotate(-45)"/><rect class="cls-7" x="131.9" y="273.51" width="4.97" height="4.97" transform="translate(-155.8 175.86) rotate(-45)"/><rect class="cls-7" x="135.95" y="273.51" width="4.97" height="4.97" transform="translate(-154.61 178.72) rotate(-45)"/><rect class="cls-7" x="139.99" y="273.51" width="4.97" height="4.97" transform="translate(-153.43 181.58) rotate(-45)"/><rect class="cls-7" x="144.04" y="273.51" width="4.97" height="4.97" transform="translate(-152.24 184.44) rotate(-45)"/><rect class="cls-7" x="148.08" y="273.51" width="4.97" height="4.97" transform="translate(-151.06 187.31) rotate(-45)"/><rect class="cls-7" x="152.13" y="273.51" width="4.97" height="4.97" transform="translate(-149.87 190.17) rotate(-45)"/><rect class="cls-7" x="156.17" y="273.51" width="4.97" height="4.97" transform="translate(-148.69 193.03) rotate(-45)"/><rect class="cls-7" x="160.22" y="273.51" width="4.97" height="4.97" transform="translate(-147.5 195.89) rotate(-45)"/><rect class="cls-7" x="164.26" y="273.51" width="4.97" height="4.97" transform="translate(-146.32 198.75) rotate(-45)"/><rect class="cls-7" x="168.31" y="273.51" width="4.97" height="4.97" transform="translate(-145.13 201.61) rotate(-45)"/><rect class="cls-7" x="172.35" y="273.51" width="4.97" height="4.97" transform="translate(-143.95 204.47) rotate(-45)"/><rect class="cls-7" x="176.39" y="273.51" width="4.97" height="4.97" transform="translate(-142.76 207.33) rotate(-45)"/><rect class="cls-7" x="180.44" y="273.51" width="4.97" height="4.97" transform="translate(-141.58 210.19) rotate(-45)"/><rect class="cls-7" x="184.48" y="273.51" width="4.97" height="4.97" transform="translate(-140.39 213.05) rotate(-45)"/><rect class="cls-7" x="188.53" y="273.51" width="4.97" height="4.97" transform="translate(-139.21 215.91) rotate(-45)"/><rect class="cls-7" x="192.57" y="273.51" width="4.97" height="4.97" transform="translate(-138.03 218.77) rotate(-45)"/><rect class="cls-7" x="196.62" y="273.51" width="4.97" height="4.97" transform="translate(-136.84 221.63) rotate(-45)"/><rect class="cls-7" x="200.66" y="273.51" width="4.97" height="4.97" transform="translate(-135.66 224.49) rotate(-45)"/><rect class="cls-7" x="204.71" y="273.51" width="4.97" height="4.97" transform="translate(-134.47 227.35) rotate(-45)"/><rect class="cls-7" x="208.75" y="273.51" width="4.97" height="4.97" transform="translate(-133.29 230.21) rotate(-45)"/><rect class="cls-7" x="212.8" y="273.51" width="4.97" height="4.97" transform="translate(-132.1 233.07) rotate(-45)"/><rect class="cls-7" x="216.84" y="273.51" width="4.97" height="4.97" transform="translate(-130.92 235.93) rotate(-45)"/><rect class="cls-7" x="220.89" y="273.51" width="4.97" height="4.97" transform="translate(-129.73 238.79) rotate(-45)"/><rect class="cls-7" x="224.93" y="273.51" width="4.97" height="4.97" transform="translate(-128.55 241.65) rotate(-45)"/><rect class="cls-7" x="228.98" y="273.51" width="4.97" height="4.97" transform="translate(-127.36 244.51) rotate(-45)"/><rect class="cls-7" x="233.02" y="273.51" width="4.97" height="4.97" transform="translate(-126.18 247.37) rotate(-45)"/><rect class="cls-7" x="237.07" y="273.51" width="4.97" height="4.97" transform="translate(-124.99 250.23) rotate(-45)"/><rect class="cls-7" x="241.11" y="273.51" width="4.97" height="4.97" transform="translate(-123.81 253.09) rotate(-45)"/><rect class="cls-7" x="245.16" y="273.51" width="4.97" height="4.97" transform="translate(-122.62 255.95) rotate(-45)"/><rect class="cls-7" x="63.14" y="273.51" width="4.97" height="4.97" transform="translate(-175.94 127.24) rotate(-45)"/><rect class="cls-7" x="63.14" y="273.51" width="4.97" height="4.97" transform="translate(-175.94 127.24) rotate(-45)"/><rect class="cls-7" x="63.14" y="273.51" width="4.97" height="4.97" transform="translate(-175.94 127.24) rotate(-45)"/><rect class="cls-7" x="63.14" y="273.51" width="4.97" height="4.97" transform="translate(-175.94 127.24) rotate(-45)"/><rect class="cls-7" x="63.14" y="273.51" width="4.97" height="4.97" transform="translate(-175.94 127.24) rotate(-45)"/><rect class="cls-7" x="63.14" y="273.51" width="4.97" height="4.97" transform="translate(-175.94 127.24) rotate(-45)"/><rect class="cls-7" x="63.14" y="273.51" width="4.97" height="4.97" transform="translate(-175.94 127.24) rotate(-45)"/><rect class="cls-7" x="63.14" y="273.51" width="4.97" height="4.97" transform="translate(-175.94 127.24) rotate(-45)"/><rect class="cls-7" x="63.14" y="273.51" width="4.97" height="4.97" transform="translate(-175.94 127.24) rotate(-45)"/><rect class="cls-7" x="63.14" y="273.51" width="4.97" height="4.97" transform="translate(-175.94 127.24) rotate(-45)"/><rect class="cls-7" x="63.14" y="273.51" width="4.97" height="4.97" transform="translate(-175.94 127.24) rotate(-45)"/><rect class="cls-7" x="63.14" y="273.51" width="4.97" height="4.97" transform="translate(-175.94 127.24) rotate(-45)"/><rect class="cls-7" x="63.14" y="273.51" width="4.97" height="4.97" transform="translate(-175.94 127.24) rotate(-45)"/><rect class="cls-7" x="63.14" y="273.51" width="4.97" height="4.97" transform="translate(-175.94 127.24) rotate(-45)"/><rect class="cls-7" x="63.14" y="273.51" width="4.97" height="4.97" transform="translate(-175.94 127.24) rotate(-45)"/><rect class="cls-7" x="63.14" y="273.51" width="4.97" height="4.97" transform="translate(-175.94 127.24) rotate(-45)"/><rect class="cls-7" x="63.14" y="273.51" width="4.97" height="4.97" transform="translate(-175.94 127.24) rotate(-45)"/><rect class="cls-7" x="63.14" y="273.51" width="4.97" height="4.97" transform="translate(-175.94 127.24) rotate(-45)"/><rect class="cls-7" x="63.14" y="273.51" width="4.97" height="4.97" transform="translate(-175.94 127.24) rotate(-45)"/><rect class="cls-7" x="63.14" y="273.51" width="4.97" height="4.97" transform="translate(-175.94 127.24) rotate(-45)"/><rect class="cls-7" x="63.14" y="273.51" width="4.97" height="4.97" transform="translate(-175.94 127.24) rotate(-45)"/><rect class="cls-7" x="63.14" y="273.51" width="4.97" height="4.97" transform="translate(-175.94 127.24) rotate(-45)"/><rect class="cls-7" x="63.14" y="273.51" width="4.97" height="4.97" transform="translate(-175.94 127.24) rotate(-45)"/><rect class="cls-7" x="63.14" y="273.51" width="4.97" height="4.97" transform="translate(-175.94 127.24) rotate(-45)"/><rect class="cls-7" x="63.14" y="273.51" width="4.97" height="4.97" transform="translate(-175.94 127.24) rotate(-45)"/><rect class="cls-7" x="63.14" y="273.51" width="4.97" height="4.97" transform="translate(-175.94 127.24) rotate(-45)"/><rect class="cls-7" x="63.14" y="273.51" width="4.97" height="4.97" transform="translate(-175.94 127.24) rotate(-45)"/><rect class="cls-7" x="63.14" y="273.51" width="4.97" height="4.97" transform="translate(-175.94 127.24) rotate(-45)"/><rect class="cls-7" x="63.14" y="273.51" width="4.97" height="4.97" transform="translate(-175.94 127.24) rotate(-45)"/><rect class="cls-7" x="63.14" y="273.51" width="4.97" height="4.97" transform="translate(-175.94 127.24) rotate(-45)"/><rect class="cls-7" x="63.14" y="273.51" width="4.97" height="4.97" transform="translate(-175.94 127.24) rotate(-45)"/><rect class="cls-7" x="63.14" y="273.51" width="4.97" height="4.97" transform="translate(-175.94 127.24) rotate(-45)"/><rect class="cls-7" x="63.14" y="273.51" width="4.97" height="4.97" transform="translate(-175.94 127.24) rotate(-45)"/><rect class="cls-7" x="63.14" y="273.51" width="4.97" height="4.97" transform="translate(-175.94 127.24) rotate(-45)"/><rect class="cls-7" x="63.14" y="273.51" width="4.97" height="4.97" transform="translate(-175.94 127.24) rotate(-45)"/><rect class="cls-7" x="63.14" y="273.51" width="4.97" height="4.97" transform="translate(-175.94 127.24) rotate(-45)"/><rect class="cls-7" x="63.14" y="273.51" width="4.97" height="4.97" transform="translate(-175.94 127.24) rotate(-45)"/><rect class="cls-7" x="63.14" y="273.51" width="4.97" height="4.97" transform="translate(-175.94 127.24) rotate(-45)"/><rect class="cls-7" x="63.14" y="273.51" width="4.97" height="4.97" transform="translate(-175.94 127.24) rotate(-45)"/><rect class="cls-7" x="63.14" y="273.51" width="4.97" height="4.97" transform="translate(-175.94 127.24) rotate(-45)"/><rect class="cls-7" x="63.14" y="273.51" width="4.97" height="4.97" transform="translate(-175.94 127.24) rotate(-45)"/><rect class="cls-7" x="63.14" y="273.51" width="4.97" height="4.97" transform="translate(-175.94 127.24) rotate(-45)"/><rect class="cls-7" x="63.14" y="273.51" width="4.97" height="4.97" transform="translate(-175.94 127.24) rotate(-45)"/><rect class="cls-7" x="63.14" y="273.51" width="4.97" height="4.97" transform="translate(-175.94 127.24) rotate(-45)"/><rect class="cls-7" x="63.14" y="273.51" width="4.97" height="4.97" transform="translate(-175.94 127.24) rotate(-45)"/><rect class="cls-7" x="63.14" y="273.51" width="4.97" height="4.97" transform="translate(-175.94 127.24) rotate(-45)"/><rect class="cls-7" x="65.14" y="273.51" width="4.97" height="4.97" transform="translate(-175.35 128.66) rotate(-45)"/><rect class="cls-7" x="67.14" y="273.51" width="4.97" height="4.97" transform="translate(-174.76 130.07) rotate(-45)"/><rect class="cls-7" x="69.14" y="273.51" width="4.97" height="4.97" transform="translate(-174.18 131.49) rotate(-45)"/><rect class="cls-7" x="71.14" y="273.51" width="4.97" height="4.97" transform="translate(-173.59 132.9) rotate(-45)"/><rect class="cls-7" x="73.14" y="273.51" width="4.97" height="4.97" transform="translate(-173.01 134.32) rotate(-45)"/><rect class="cls-7" x="75.14" y="273.51" width="4.97" height="4.97" transform="translate(-172.42 135.73) rotate(-45)"/><rect class="cls-7" x="77.14" y="273.51" width="4.97" height="4.97" transform="translate(-171.83 137.14) rotate(-45)"/><rect class="cls-7" x="79.14" y="273.51" width="4.97" height="4.97" transform="translate(-171.25 138.56) rotate(-45)"/><rect class="cls-7" x="81.14" y="273.51" width="4.97" height="4.97" transform="translate(-170.66 139.97) rotate(-45)"/><rect class="cls-7" x="83.14" y="273.51" width="4.97" height="4.97" transform="translate(-170.08 141.39) rotate(-45)"/><rect class="cls-7" x="85.14" y="273.51" width="4.97" height="4.97" transform="translate(-169.49 142.8) rotate(-45)"/><rect class="cls-7" x="87.14" y="273.51" width="4.97" height="4.97" transform="translate(-168.91 144.22) rotate(-45)"/><rect class="cls-7" x="89.14" y="273.51" width="4.97" height="4.97" transform="translate(-168.32 145.63) rotate(-45)"/><rect class="cls-7" x="91.14" y="273.51" width="4.97" height="4.97" transform="translate(-167.73 147.04) rotate(-45)"/><rect class="cls-7" x="93.14" y="273.51" width="4.97" height="4.97" transform="translate(-167.15 148.46) rotate(-45)"/><rect class="cls-7" x="95.14" y="273.51" width="4.97" height="4.97" transform="translate(-166.56 149.87) rotate(-45)"/><rect class="cls-7" x="97.14" y="273.51" width="4.97" height="4.97" transform="translate(-165.98 151.29) rotate(-45)"/><rect class="cls-7" x="99.14" y="273.51" width="4.97" height="4.97" transform="translate(-165.39 152.7) rotate(-45)"/><rect class="cls-7" x="101.14" y="273.51" width="4.97" height="4.97" transform="translate(-164.8 154.12) rotate(-45)"/><rect class="cls-7" x="103.14" y="273.51" width="4.97" height="4.97" transform="translate(-164.22 155.53) rotate(-45)"/><rect class="cls-7" x="105.15" y="273.51" width="4.97" height="4.97" transform="translate(-163.63 156.94) rotate(-45)"/><rect class="cls-7" x="107.15" y="273.51" width="4.97" height="4.97" transform="translate(-163.05 158.36) rotate(-45)"/><rect class="cls-7" x="109.15" y="273.51" width="4.97" height="4.97" transform="translate(-162.46 159.77) rotate(-45)"/><rect class="cls-7" x="111.15" y="273.51" width="4.97" height="4.97" transform="translate(-161.88 161.19) rotate(-45)"/><rect class="cls-7" x="113.15" y="273.51" width="4.97" height="4.97" transform="translate(-161.29 162.6) rotate(-45)"/><rect class="cls-7" x="115.15" y="273.51" width="4.97" height="4.97" transform="translate(-160.7 164.02) rotate(-45)"/><rect class="cls-7" x="117.15" y="273.51" width="4.97" height="4.97" transform="translate(-160.12 165.43) rotate(-45)"/><rect class="cls-7" x="119.15" y="273.51" width="4.97" height="4.97" transform="translate(-159.53 166.84) rotate(-45)"/><rect class="cls-7" x="121.15" y="273.51" width="4.97" height="4.97" transform="translate(-158.95 168.26) rotate(-45)"/><rect class="cls-7" x="123.15" y="273.51" width="4.97" height="4.97" transform="translate(-158.36 169.67) rotate(-45)"/><rect class="cls-7" x="125.15" y="273.51" width="4.97" height="4.97" transform="translate(-157.77 171.09) rotate(-45)"/><rect class="cls-7" x="127.15" y="273.51" width="4.97" height="4.97" transform="translate(-157.19 172.5) rotate(-45)"/><rect class="cls-7" x="129.15" y="273.51" width="4.97" height="4.97" transform="translate(-156.6 173.92) rotate(-45)"/><rect class="cls-7" x="131.15" y="273.51" width="4.97" height="4.97" transform="translate(-156.02 175.33) rotate(-45)"/><rect class="cls-7" x="133.15" y="273.51" width="4.97" height="4.97" transform="translate(-155.43 176.74) rotate(-45)"/><rect class="cls-7" x="135.15" y="273.51" width="4.97" height="4.97" transform="translate(-154.85 178.16) rotate(-45)"/><rect class="cls-7" x="137.15" y="273.51" width="4.97" height="4.97" transform="translate(-154.26 179.57) rotate(-45)"/><rect class="cls-7" x="139.15" y="273.51" width="4.97" height="4.97" transform="translate(-153.67 180.99) rotate(-45)"/><rect class="cls-7" x="141.15" y="273.51" width="4.97" height="4.97" transform="translate(-153.09 182.4) rotate(-45)"/><rect class="cls-7" x="143.15" y="273.51" width="4.97" height="4.97" transform="translate(-152.5 183.82) rotate(-45)"/><rect class="cls-7" x="145.15" y="273.51" width="4.97" height="4.97" transform="translate(-151.92 185.23) rotate(-45)"/><rect class="cls-7" x="147.15" y="273.51" width="4.97" height="4.97" transform="translate(-151.33 186.65) rotate(-45)"/><rect class="cls-7" x="149.15" y="273.51" width="4.97" height="4.97" transform="translate(-150.74 188.06) rotate(-45)"/><rect class="cls-7" x="151.15" y="273.51" width="4.97" height="4.97" transform="translate(-150.16 189.47) rotate(-45)"/><rect class="cls-7" x="153.15" y="273.51" width="4.97" height="4.97" transform="translate(-149.57 190.89) rotate(-45)"/><rect class="cls-7" x="155.15" y="273.51" width="4.97" height="4.97" transform="translate(-148.99 192.3) rotate(-45)"/><rect class="cls-7" x="157.15" y="273.51" width="4.97" height="4.97" transform="translate(-148.4 193.72) rotate(-45)"/><rect class="cls-7" x="159.15" y="273.51" width="4.97" height="4.97" transform="translate(-147.82 195.13) rotate(-45)"/><rect class="cls-7" x="161.15" y="273.51" width="4.97" height="4.97" transform="translate(-147.23 196.55) rotate(-45)"/><rect class="cls-7" x="163.15" y="273.51" width="4.97" height="4.97" transform="translate(-146.64 197.96) rotate(-45)"/><rect class="cls-7" x="165.15" y="273.51" width="4.97" height="4.97" transform="translate(-146.06 199.37) rotate(-45)"/><rect class="cls-7" x="167.15" y="273.51" width="4.97" height="4.97" transform="translate(-145.47 200.79) rotate(-45)"/><rect class="cls-7" x="169.15" y="273.51" width="4.97" height="4.97" transform="translate(-144.89 202.2) rotate(-45)"/><rect class="cls-7" x="171.15" y="273.51" width="4.97" height="4.97" transform="translate(-144.3 203.62) rotate(-45)"/><rect class="cls-7" x="173.15" y="273.51" width="4.97" height="4.97" transform="translate(-143.71 205.03) rotate(-45)"/><rect class="cls-7" x="175.15" y="273.51" width="4.97" height="4.97" transform="translate(-143.13 206.45) rotate(-45)"/><rect class="cls-7" x="177.15" y="273.51" width="4.97" height="4.97" transform="translate(-142.54 207.86) rotate(-45)"/><rect class="cls-7" x="179.15" y="273.51" width="4.97" height="4.97" transform="translate(-141.96 209.27) rotate(-45)"/><rect class="cls-7" x="181.15" y="273.51" width="4.97" height="4.97" transform="translate(-141.37 210.69) rotate(-45)"/><rect class="cls-7" x="183.15" y="273.51" width="4.97" height="4.97" transform="translate(-140.79 212.1) rotate(-45)"/><rect class="cls-7" x="185.15" y="273.51" width="4.97" height="4.97" transform="translate(-140.2 213.52) rotate(-45)"/><rect class="cls-7" x="187.15" y="273.51" width="4.97" height="4.97" transform="translate(-139.61 214.93) rotate(-45)"/><rect class="cls-7" x="189.15" y="273.51" width="4.97" height="4.97" transform="translate(-139.03 216.35) rotate(-45)"/><rect class="cls-7" x="191.15" y="273.51" width="4.97" height="4.97" transform="translate(-138.44 217.76) rotate(-45)"/><rect class="cls-7" x="193.15" y="273.51" width="4.97" height="4.97" transform="translate(-137.86 219.17) rotate(-45)"/><rect class="cls-7" x="195.15" y="273.51" width="4.97" height="4.97" transform="translate(-137.27 220.59) rotate(-45)"/><rect class="cls-7" x="197.15" y="273.51" width="4.97" height="4.97" transform="translate(-136.68 222) rotate(-45)"/><rect class="cls-7" x="199.15" y="273.51" width="4.97" height="4.97" transform="translate(-136.1 223.42) rotate(-45)"/><rect class="cls-7" x="201.15" y="273.51" width="4.97" height="4.97" transform="translate(-135.51 224.83) rotate(-45)"/><rect class="cls-7" x="203.15" y="273.51" width="4.97" height="4.97" transform="translate(-134.93 226.25) rotate(-45)"/><rect class="cls-7" x="205.15" y="273.51" width="4.97" height="4.97" transform="translate(-134.34 227.66) rotate(-45)"/><rect class="cls-7" x="207.15" y="273.51" width="4.97" height="4.97" transform="translate(-133.76 229.07) rotate(-45)"/><rect class="cls-7" x="209.15" y="273.51" width="4.97" height="4.97" transform="translate(-133.17 230.49) rotate(-45)"/><rect class="cls-7" x="211.15" y="273.51" width="4.97" height="4.97" transform="translate(-132.58 231.9) rotate(-45)"/><rect class="cls-7" x="213.15" y="273.51" width="4.97" height="4.97" transform="translate(-132 233.32) rotate(-45)"/><rect class="cls-7" x="215.15" y="273.51" width="4.97" height="4.97" transform="translate(-131.41 234.73) rotate(-45)"/><rect class="cls-7" x="217.15" y="273.51" width="4.97" height="4.97" transform="translate(-130.83 236.15) rotate(-45)"/><rect class="cls-7" x="219.15" y="273.51" width="4.97" height="4.97" transform="translate(-130.24 237.56) rotate(-45)"/><rect class="cls-7" x="221.15" y="273.51" width="4.97" height="4.97" transform="translate(-129.65 238.97) rotate(-45)"/><rect class="cls-7" x="223.15" y="273.51" width="4.97" height="4.97" transform="translate(-129.07 240.39) rotate(-45)"/><rect class="cls-7" x="225.15" y="273.51" width="4.97" height="4.97" transform="translate(-128.48 241.8) rotate(-45)"/><rect class="cls-7" x="227.15" y="273.51" width="4.97" height="4.97" transform="translate(-127.9 243.22) rotate(-45)"/><rect class="cls-7" x="229.15" y="273.51" width="4.97" height="4.97" transform="translate(-127.31 244.63) rotate(-45)"/><rect class="cls-7" x="231.15" y="273.51" width="4.97" height="4.97" transform="translate(-126.73 246.05) rotate(-45)"/><rect class="cls-7" x="233.15" y="273.51" width="4.97" height="4.97" transform="translate(-126.14 247.46) rotate(-45)"/><rect class="cls-7" x="235.15" y="273.51" width="4.97" height="4.97" transform="translate(-125.55 248.88) rotate(-45)"/><rect class="cls-7" x="237.16" y="273.51" width="4.97" height="4.97" transform="translate(-124.97 250.29) rotate(-45)"/><rect class="cls-7" x="239.16" y="273.51" width="4.97" height="4.97" transform="translate(-124.38 251.7) rotate(-45)"/><rect class="cls-7" x="241.16" y="273.51" width="4.97" height="4.97" transform="translate(-123.8 253.12) rotate(-45)"/><rect class="cls-7" x="243.16" y="273.51" width="4.97" height="4.97" transform="translate(-123.21 254.53) rotate(-45)"/><rect class="cls-7" x="245.16" y="273.51" width="4.97" height="4.97" transform="translate(-122.62 255.95) rotate(-45)"/><rect class="cls-7" x="245.16" y="273.51" width="4.97" height="4.97" transform="translate(-122.62 255.95) rotate(-45)"/><rect class="cls-7" x="245.16" y="273.51" width="4.97" height="4.97" transform="translate(-122.62 255.95) rotate(-45)"/><rect class="cls-7" x="400.58" y="165.14" width="5" height="5" transform="translate(-0.48 334.13) rotate(-45)"/><rect class="cls-7" x="402.51" y="158.48" width="5" height="5" transform="translate(4.79 333.54) rotate(-45)"/><rect class="cls-7" x="404.13" y="151.46" width="5" height="5" transform="translate(10.23 332.63) rotate(-45)"/><rect class="cls-7" x="405.68" y="144.37" width="5" height="5" transform="translate(15.7 331.65) rotate(-45)"/><rect class="cls-7" x="407.83" y="136.24" width="5" height="5" transform="translate(22.08 330.78) rotate(-45)"/><rect class="cls-7" x="409.82" y="127.81" width="5" height="5" transform="translate(28.62 329.73) rotate(-45)"/><rect class="cls-7" x="411.6" y="119.82" width="5" height="5" transform="translate(34.8 328.64) rotate(-45)"/><rect class="cls-7" x="413.3" y="111.47" width="5" height="5" transform="translate(41.19 327.4) rotate(-45)"/><rect class="cls-7" x="415.37" y="102.68" width="5" height="5" transform="translate(48.02 326.28) rotate(-45)"/><rect class="cls-7" x="417.36" y="92.22" width="5" height="5" transform="translate(55.99 324.63) rotate(-45)"/><rect class="cls-7" x="428.14" y="19.39" width="5" height="5" transform="translate(110.65 310.92) rotate(-45)"/><rect class="cls-7" x="419.67" y="80.72" width="5" height="5" transform="translate(64.8 322.89) rotate(-45)"/><rect class="cls-7" x="421.43" y="70.3" width="5" height="5" transform="translate(72.69 321.09) rotate(-45)"/><rect class="cls-7" x="423.2" y="58.84" width="5" height="5" transform="translate(81.31 318.99) rotate(-45)"/><rect class="cls-7" x="425.2" y="46.39" width="5" height="5" transform="translate(90.7 316.75) rotate(-45)"/><rect class="cls-7" x="426.97" y="33.42" width="5" height="5" transform="translate(100.39 314.2) rotate(-45)"/><rect class="cls-7" x="246.28" y="273.5" width="5" height="5" transform="translate(-122.29 256.75) rotate(-45)"/><rect class="cls-7" x="247.72" y="273.5" width="5" height="5" transform="translate(-121.87 257.77) rotate(-45)"/><rect class="cls-7" x="249.23" y="273.49" width="5" height="5" transform="translate(-121.43 258.84) rotate(-45)"/><rect class="cls-7" x="250.79" y="273.49" width="5" height="5" transform="translate(-120.97 259.94) rotate(-45)"/><rect class="cls-7" x="252.41" y="273.49" width="5" height="5" transform="translate(-120.49 261.08) rotate(-45)"/><rect class="cls-7" x="254.08" y="273.48" width="5" height="5" transform="translate(-120 262.26) rotate(-45)"/><rect class="cls-7" x="255.8" y="273.47" width="5" height="5" transform="translate(-119.49 263.47) rotate(-45)"/><rect class="cls-7" x="257.56" y="273.46" width="5" height="5" transform="translate(-118.96 264.72) rotate(-45)"/><rect class="cls-7" x="259.37" y="273.44" width="5" height="5" transform="translate(-118.42 265.99) rotate(-45)"/><rect class="cls-7" x="261.23" y="273.41" width="5" height="5" transform="translate(-117.86 267.29) rotate(-45)"/><rect class="cls-7" x="263.12" y="273.38" width="5" height="5" transform="translate(-117.28 268.62) rotate(-45)"/><rect class="cls-7" x="265.04" y="273.35" width="5" height="5" transform="translate(-116.69 269.97) rotate(-45)"/><rect class="cls-7" x="267.01" y="273.3" width="5" height="5" transform="translate(-116.08 271.35) rotate(-45)"/><rect class="cls-7" x="269" y="273.25" width="5" height="5" transform="translate(-115.46 272.74) rotate(-45)"/><rect class="cls-7" x="271.03" y="273.19" width="5" height="5" transform="translate(-114.82 274.16) rotate(-45)"/><rect class="cls-7" x="273.08" y="273.11" width="5" height="5" transform="translate(-114.17 275.59) rotate(-45)"/><rect class="cls-7" x="275.15" y="273.03" width="5" height="5" transform="translate(-113.51 277.03) rotate(-45)"/><rect class="cls-7" x="277.25" y="272.94" width="5" height="5" transform="translate(-112.83 278.49) rotate(-45)"/><rect class="cls-7" x="279.37" y="272.84" width="5" height="5" transform="translate(-112.13 279.96) rotate(-45)"/><rect class="cls-7" x="281.51" y="272.72" width="5" height="5" transform="translate(-111.43 281.43) rotate(-45)"/><rect class="cls-7" x="283.66" y="272.59" width="5" height="5" transform="translate(-110.7 282.92) rotate(-45)"/><rect class="cls-7" x="285.83" y="272.45" width="5" height="5" transform="translate(-109.97 284.41) rotate(-45)"/><rect class="cls-7" x="288" y="272.29" width="5" height="5" transform="translate(-109.22 285.9) rotate(-45)"/><rect class="cls-7" x="290.18" y="272.12" width="5" height="5" transform="translate(-108.46 287.39) rotate(-45)"/><rect class="cls-7" x="292.37" y="271.94" width="5" height="5" transform="translate(-107.69 288.88) rotate(-45)"/><rect class="cls-7" x="294.56" y="271.73" width="5" height="5" transform="translate(-106.9 290.37) rotate(-45)"/><rect class="cls-7" x="296.76" y="271.51" width="5" height="5" transform="translate(-106.11 291.86) rotate(-45)"/><rect class="cls-7" x="298.95" y="271.27" width="5" height="5" transform="translate(-105.3 293.34) rotate(-45)"/><rect class="cls-7" x="301.13" y="271.02" width="5" height="5" transform="translate(-104.47 294.81) rotate(-45)"/><rect class="cls-7" x="303.31" y="270.74" width="5" height="5" transform="translate(-103.64 296.27) rotate(-45)"/><rect class="cls-7" x="305.48" y="270.45" width="5" height="5" transform="translate(-102.8 297.72) rotate(-45)"/><rect class="cls-7" x="307.64" y="270.13" width="5" height="5" transform="translate(-101.94 299.15) rotate(-45)"/><rect class="cls-7" x="309.78" y="269.8" width="5" height="5" transform="translate(-101.08 300.57) rotate(-45)"/><rect class="cls-7" x="311.91" y="269.44" width="5" height="5" transform="translate(-100.2 301.97) rotate(-45)"/><rect class="cls-7" x="314.02" y="269.06" width="5" height="5" transform="translate(-99.31 303.35) rotate(-45)"/><rect class="cls-7" x="316.11" y="268.66" width="5" height="5" transform="translate(-98.42 304.71) rotate(-45)"/><rect class="cls-7" x="318.18" y="268.23" width="5" height="5" transform="translate(-97.51 306.04) rotate(-45)"/><rect class="cls-7" x="320.21" y="267.78" width="5" height="5" transform="translate(-96.59 307.35) rotate(-45)"/><rect class="cls-7" x="322.22" y="267.3" width="5" height="5" transform="translate(-95.67 308.64) rotate(-45)"/><rect class="cls-7" x="324.2" y="266.8" width="5" height="5" transform="translate(-94.73 309.89) rotate(-45)"/><rect class="cls-7" x="326.15" y="266.27" width="5" height="5" transform="translate(-93.79 311.11) rotate(-45)"/><rect class="cls-7" x="328.06" y="265.72" width="5" height="5" transform="translate(-92.84 312.3) rotate(-45)"/><rect class="cls-7" x="329.93" y="265.13" width="5" height="5" transform="translate(-91.88 313.45) rotate(-45)"/><rect class="cls-7" x="331.76" y="264.52" width="5" height="5" transform="translate(-90.91 314.57) rotate(-45)"/><rect class="cls-7" x="333.55" y="263.88" width="5" height="5" transform="translate(-89.93 315.64) rotate(-45)"/><rect class="cls-7" x="335.29" y="263.21" width="5" height="5" transform="translate(-88.95 316.68) rotate(-45)"/><rect class="cls-7" x="336.99" y="262.51" width="5" height="5" transform="translate(-87.96 317.67) rotate(-45)"/><rect class="cls-7" x="338.63" y="261.78" width="5" height="5" transform="translate(-86.96 318.62) rotate(-45)"/><rect class="cls-7" x="340.38" y="260.93" width="5" height="5" transform="translate(-85.85 319.61) rotate(-45)"/><rect class="cls-7" x="343.02" y="259.54" width="5" height="5" transform="translate(-84.09 321.07) rotate(-45)"/><rect class="cls-7" x="345.56" y="258.06" width="5" height="5" transform="translate(-82.3 322.43) rotate(-45)"/><rect class="cls-7" x="348.02" y="256.5" width="5" height="5" transform="translate(-80.47 323.71) rotate(-45)"/><rect class="cls-7" x="350.4" y="254.86" width="5" height="5" transform="translate(-78.62 324.91) rotate(-45)"/><rect class="cls-7" x="352.68" y="253.16" width="5" height="5" transform="translate(-76.74 326.03) rotate(-45)"/><rect class="cls-7" x="354.89" y="251.39" width="5" height="5" transform="translate(-74.85 327.07) rotate(-45)"/><rect class="cls-7" x="357.01" y="249.58" width="5" height="5" transform="translate(-72.95 328.04) rotate(-45)"/><rect class="cls-7" x="359.05" y="247.73" width="5" height="5" transform="translate(-71.04 328.94) rotate(-45)"/><rect class="cls-7" x="361" y="245.84" width="5" height="5" transform="translate(-69.14 329.77) rotate(-45)"/><rect class="cls-7" x="362.87" y="243.94" width="5" height="5" transform="translate(-67.24 330.53) rotate(-45)"/><rect class="cls-7" x="364.65" y="242.01" width="5" height="5" transform="translate(-65.36 331.23) rotate(-45)"/><rect class="cls-7" x="366.36" y="240.08" width="5" height="5" transform="translate(-63.5 331.87) rotate(-45)"/><rect class="cls-7" x="367.98" y="238.16" width="5" height="5" transform="translate(-61.66 332.45) rotate(-45)"/><rect class="cls-7" x="369.51" y="236.24" width="5" height="5" transform="translate(-59.85 332.98) rotate(-45)"/><rect class="cls-7" x="370.97" y="234.34" width="5" height="5" transform="translate(-58.09 333.45) rotate(-45)"/><rect class="cls-7" x="372.35" y="232.47" width="5" height="5" transform="translate(-56.36 333.88) rotate(-45)"/><rect class="cls-7" x="373.64" y="230.64" width="5" height="5" transform="translate(-54.69 334.26) rotate(-45)"/><rect class="cls-7" x="374.85" y="228.85" width="5" height="5" transform="translate(-53.07 334.59) rotate(-45)"/><rect class="cls-7" x="375.99" y="227.12" width="5" height="5" transform="translate(-51.51 334.88) rotate(-45)"/><rect class="cls-7" x="377.04" y="225.45" width="5" height="5" transform="translate(-50.02 335.14) rotate(-45)"/><rect class="cls-7" x="378.01" y="223.84" width="5" height="5" transform="translate(-48.6 335.35) rotate(-45)"/><rect class="cls-7" x="378.9" y="222.32" width="5" height="5" transform="translate(-47.26 335.54) rotate(-45)"/><rect class="cls-7" x="379.71" y="220.89" width="5" height="5" transform="translate(-46.01 335.69) rotate(-45)"/><rect class="cls-7" x="380.45" y="219.55" width="5" height="5" transform="translate(-44.85 335.82) rotate(-45)"/><rect class="cls-7" x="381.1" y="218.31" width="5" height="5" transform="translate(-43.78 335.92) rotate(-45)"/><rect class="cls-7" x="381.68" y="217.19" width="5" height="5" transform="translate(-42.82 336) rotate(-45)"/><rect class="cls-7" x="382.18" y="216.19" width="5" height="5" transform="translate(-41.97 336.06) rotate(-45)"/><rect class="cls-7" x="382.6" y="215.32" width="5" height="5" transform="translate(-41.23 336.11) rotate(-45)"/><rect class="cls-7" x="382.95" y="214.59" width="5" height="5" transform="translate(-40.61 336.13) rotate(-45)"/><rect class="cls-7" x="383.21" y="214.01" width="5" height="5" transform="translate(-40.12 336.15) rotate(-45)"/><rect class="cls-7" x="383.4" y="213.58" width="5" height="5" transform="translate(-39.76 336.16) rotate(-45)"/><rect class="cls-7" x="383.52" y="213.32" width="5" height="5" transform="translate(-39.54 336.17) rotate(-45)"/><rect class="cls-7" x="383.56" y="213.23" width="5" height="5" transform="translate(-39.47 336.17) rotate(-45)"/><rect class="cls-7" x="386.02" y="207.42" width="5" height="5" transform="translate(-34.64 336.21) rotate(-45)"/><rect class="cls-7" x="388.17" y="202.61" width="5" height="5" transform="translate(-30.61 336.32) rotate(-45)"/><rect class="cls-7" x="389.67" y="198.38" width="5" height="5" transform="translate(-27.18 336.14) rotate(-45)"/><rect class="cls-7" x="391.54" y="193.23" width="5" height="5" transform="translate(-22.99 335.96) rotate(-45)"/><rect class="cls-7" x="393.19" y="188.35" width="5" height="5" transform="translate(-19.05 335.7) rotate(-45)"/><rect class="cls-7" x="395.19" y="183.17" width="5" height="5" transform="translate(-14.81 335.59) rotate(-45)"/><rect class="cls-7" x="396.89" y="177.26" width="5" height="5" transform="translate(-10.13 335.06) rotate(-45)"/><rect class="cls-7" x="398.88" y="171.35" width="5" height="5" transform="translate(-5.37 334.74) rotate(-45)"/><rect class="cls-7" x="384.17" y="211.11" width="5" height="5" transform="translate(-37.79 335.98) rotate(-45)"/><rect class="cls-4" x="466.73" y="7.3" width="85.94" height="60.42"/><rect class="cls-7" x="482.54" y="55.04" width="6.53" height="6.53" transform="translate(101.06 360.59) rotate(-45)"/><line class="cls-5" x1="471.02" y1="58.31" x2="475.52" y2="58.31"/><line class="cls-8" x1="480.36" y1="58.31" x2="493.66" y2="58.31"/><line class="cls-5" x1="496.08" y1="58.31" x2="500.58" y2="58.31"/><rect class="cls-3" x="482.45" y="40.91" width="6.71" height="6.71" transform="translate(441.54 530.06) rotate(-90)"/><line class="cls-9" x1="471.02" y1="44.26" x2="500.58" y2="44.26"/><line class="cls-10" x1="471.02" y1="30.51" x2="500.58" y2="30.51"/><circle cx="485.36" cy="30.36" r="3.99"/></g><g id="text"><text class="cls-11" transform="translate(21.43 186.5) rotate(-90)">Density</text><text class="cls-12" transform="translate(505.78 20.3)"><tspan class="cls-13">V</tspan><tspan x="5.93" y="0">ariable</tspan></text><text class="cls-12" transform="translate(505.78 32.72)">r = 1</text><text class="cls-12" transform="translate(505.78 46.81)">r = 4</text><text class="cls-12" transform="translate(505.78 60.91)">r = 6</text><text class="cls-11" transform="translate(243.82 329.12)">y</text><text class="cls-14" transform="translate(27.9 26.9)">6</text><text class="cls-14" transform="translate(27.9 69.19)">5</text><text class="cls-14" transform="translate(27.9 111.48)">4</text><text class="cls-14" transform="translate(27.9 153.77)">3</text><text class="cls-14" transform="translate(27.9 196.07)">2</text><text class="cls-14" transform="translate(27.9 238.36)">1</text><text class="cls-14" transform="translate(27.9 280.65)">0</text><text class="cls-15" transform="translate(55.97 310.94)">0.0</text><text class="cls-15" transform="translate(147.47 310.94)">0.5</text><text class="cls-15" transform="translate(238.97 310.94)">1.0</text><text class="cls-15" transform="translate(330.46 310.94)">1.5</text><text class="cls-15" transform="translate(421.96 310.94)">2.0</text></g></svg>