<svg xmlns="http://www.w3.org/2000/svg" viewBox="0 0 476.83 349.22"><defs><style>.cls-1{fill:#fff;}.cls-12,.cls-2,.cls-3{fill:none;}.cls-2,.cls-3{stroke:#3b444f;stroke-width:2px;}.cls-2{stroke-miterlimit:10;}.cls-12,.cls-3{stroke-linecap:round;stroke-linejoin:round;}.cls-10,.cls-4{font-size:15px;}.cls-10,.cls-4,.cls-5,.cls-6,.cls-9{fill:#314d64;}.cls-10,.cls-4,.cls-5,.cls-6,.cls-7{font-family:Helvetica;}.cls-4{letter-spacing:-0.01em;}.cls-5,.cls-7{font-size:13px;}.cls-5{letter-spacing:-0.03em;}.cls-6{font-size:18px;letter-spacing:-0.01em;}.cls-13,.cls-7{fill:#bc204b;}.cls-7{letter-spacing:-0.01em;}.cls-8{letter-spacing:-0.08em;}.cls-9{font-size:19px;font-family:Helvetica-Bold, Helvetica;font-weight:700;letter-spacing:-0.01em;}.cls-10{letter-spacing:-0.08em;}.cls-11{letter-spacing:-0.01em;}.cls-12{stroke:#314d64;stroke-width:3px;}</style></defs><g id="white_bkg" data-name="white bkg"><rect class="cls-1" width="476.83" height="349.22"/></g><g id="grafx"><rect class="cls-2" x="79.39" y="50.54" width="341.87" height="237.72"/><line class="cls-3" x1="79.39" y1="58.72" x2="69.34" y2="58.72"/><line class="cls-3" x1="79.39" y1="80.79" x2="69.34" y2="80.79"/><line class="cls-3" x1="79.39" y1="102.86" x2="69.34" y2="102.86"/><line class="cls-3" x1="79.39" y1="124.93" x2="69.34" y2="124.93"/><line class="cls-3" x1="79.39" y1="147" x2="69.34" y2="147"/><line class="cls-3" x1="79.39" y1="169.07" x2="69.34" y2="169.07"/><line class="cls-3" x1="79.39" y1="191.14" x2="69.34" y2="191.14"/><line class="cls-3" x1="79.39" y1="213.21" x2="69.34" y2="213.21"/><line class="cls-3" x1="79.39" y1="235.28" x2="69.34" y2="235.28"/><line class="cls-3" x1="79.39" y1="257.35" x2="69.34" y2="257.35"/><line class="cls-3" x1="79.39" y1="279.42" x2="69.34" y2="279.42"/><line class="cls-3" x1="95.16" y1="288.25" x2="95.16" y2="296"/><line class="cls-3" x1="173.02" y1="288.25" x2="173.02" y2="296"/><line class="cls-3" x1="250.88" y1="288.25" x2="250.88" y2="296"/><line class="cls-3" x1="328.74" y1="288.25" x2="328.74" y2="296"/><line class="cls-3" x1="406.6" y1="288.25" x2="406.6" y2="296"/><text class="cls-4" transform="translate(82.8 311.16)">100</text><text class="cls-5" transform="translate(46.38 283.26)">0.0</text><text class="cls-5" transform="translate(46.38 261.18)">0.1</text><text class="cls-5" transform="translate(46.38 239.11)">0.2</text><text class="cls-5" transform="translate(46.38 217.04)">0.3</text><text class="cls-5" transform="translate(46.38 194.97)">0.4</text><text class="cls-5" transform="translate(46.38 172.9)">0.5</text><text class="cls-5" transform="translate(46.38 150.83)">0.6</text><text class="cls-5" transform="translate(46.38 128.76)">0.7</text><text class="cls-5" transform="translate(46.38 106.69)">0.8</text><text class="cls-5" transform="translate(46.38 84.62)">0.9</text><text class="cls-5" transform="translate(46.38 62.55)">1.0</text><text class="cls-4" transform="translate(160.66 311.16)">104</text><text class="cls-4" transform="translate(238.52 311.16)">108</text><text class="cls-6" transform="translate(196.26 335.24)">The mean mu</text><text class="cls-7" transform="translate(249.39 153.36)">(108, 0.64)</text><text class="cls-7" transform="translate(323.7 95.88)">(<tspan class="cls-8" x="4.2" y="0">1</tspan><tspan x="10.34" y="0">12, 0.91)</tspan></text><text class="cls-6" transform="translate(30.48 239.55) rotate(-90)">Power of the test</text><text class="cls-9" transform="translate(126.94 31.18)">The power function of K(mu)</text><text class="cls-10" transform="translate(316.93 311.16)">1<tspan class="cls-11" x="7.09" y="0">12</tspan></text><text class="cls-10" transform="translate(394.79 311.16)">1<tspan class="cls-11" x="7.09" y="0">16</tspan></text><path class="cls-12" d="M405.68,61.08C363,60,319.71,76.45,285.8,103.39s-59.05,61.73-88.74,93.26-60.4,58.43-101.9,70.8"/><circle class="cls-13" cx="251.5" cy="135.37" r="4.47"/><circle class="cls-13" cx="328.67" cy="77.48" r="4.47"/><circle class="cls-13" cx="405.68" cy="61.03" r="4.47"/><rect class="cls-1" x="397.57" y="65.77" width="62.88" height="16.41"/><text class="cls-7" transform="translate(398.62 78.58)">(<tspan class="cls-8" x="4.2" y="0">1</tspan><tspan x="10.34" y="0">16, 0.99)</tspan></text></g></svg>